<?xml version="1.0" encoding="UTF-8"?>
<svg width="70px" height="67px" viewBox="0 0 70 67" version="1.1" xmlns="http://www.w3.org/2000/svg" xmlns:xlink="http://www.w3.org/1999/xlink">
    <!-- Generator: Sketch 46.2 (44496) - http://www.bohemiancoding.com/sketch -->
    <title>leaves</title>
    <desc>Created with Sketch.</desc>
    <defs></defs>
    <g id="Desktop" stroke="none" stroke-width="1" fill="none" fill-rule="evenodd">
        <g id="1-1-Frontend-Test-Project-Desktop" transform="translate(-674.000000, -1320.000000)" fill-rule="nonzero" fill="#CECED2">
            <g id="ABOUT-US" transform="translate(149.000000, 1015.000000)">
                <g id="02" transform="translate(461.000000, 305.000000)">
                    <path d="M93.5156939,63.5758563 C93.6074991,63.1727852 93.7322851,62.5004319 93.8533454,61.6066253 C94.3761812,57.7464522 94.3266508,53.6070368 93.2932984,49.6303303 C92.5201779,46.6550886 91.2289621,43.9871329 89.335816,41.7383169 C87.135594,39.1247341 84.2059894,36.970845 80.7353123,35.2001454 C78.1241788,33.867975 75.3530091,32.8254539 72.584849,32.0313282 C70.9181051,31.5531751 69.6042825,31.2600931 68.8111608,31.1211195 L65.6328153,30.5641984 L65.1597762,33.7561063 C65.0969191,34.1802444 65.008214,34.9115947 64.921109,35.8905584 C64.5776003,39.7512149 64.5754102,43.8585886 65.1498296,47.7721085 C65.5001764,50.1590217 66.0553334,52.3523364 66.8518187,54.3131143 C70.4436592,63.1554645 80.2743822,67.4819438 90.8886858,65.9902007 L93.0344795,65.6886291 L93.5156939,63.5758563 L93.5156939,63.5758563 Z M87.3868648,62.1799275 L90.0138728,59.7655831 C82.0216521,60.8888165 75.0636237,57.8266037 72.6754771,51.9474929 C72.0845973,50.4928721 71.6507113,48.778675 71.3689849,46.8592722 C70.8766505,43.5049974 70.8785943,39.8594379 71.1821644,36.4476469 C71.2578688,35.5968137 71.3319731,34.9858431 71.3776557,34.6775928 L67.726271,37.3125795 C67.8526316,37.3347209 68.128896,37.3892982 68.5330336,37.4794515 C69.228324,37.6345538 70.0085692,37.8315839 70.8515068,38.0734046 C73.2575396,38.7636438 75.6605628,39.6676672 77.878676,40.7993232 C80.6567485,42.2166638 82.9271044,43.8858635 84.5271191,45.7864766 C85.776529,47.2706161 86.6598497,49.0957646 87.2095486,51.2112008 C88.0066134,54.2785885 88.0468816,57.6439356 87.6244299,60.7629586 C87.529784,61.461743 87.4388637,61.951626 87.3868648,62.1799275 L87.3868648,62.1799275 Z M96.5790282,61.6033961 C96.5025305,61.4023428 96.3523879,60.9739012 96.1527479,60.3442337 C95.8117465,59.2687107 95.4688669,58.0430384 95.1480362,56.6937571 C93.6409719,50.355667 93.1633109,43.8140095 94.3080822,37.8086557 C94.9563689,34.4078094 96.1122179,31.3161137 97.8257937,28.5835985 C100.689369,24.0172621 105.096785,19.8613006 110.643066,16.1660769 C114.390596,13.6692762 118.425141,11.5340086 122.460808,9.76675499 C123.872731,9.14846127 125.181249,8.62141795 126.350898,8.18552792 C127.040508,7.92853242 127.521592,7.76180275 127.758841,7.68499653 L123.776272,5.58382783 C123.797113,5.65450619 123.84115,5.8090831 123.905083,6.04219031 C124.014637,6.44164254 124.137531,6.90901316 124.270469,7.43891419 C124.65301,8.96376277 125.036545,10.6751034 125.394813,12.5294701 C126.553239,18.525385 127.179181,24.5572986 126.996869,30.1283129 C126.892723,33.310759 126.523,36.2358462 125.866636,38.8475077 C122.685758,51.5041736 109.640478,59.5781567 93.6415742,59.5781567 L96.5790282,61.6033961 Z M90.7041202,63.8387079 C90.2705315,62.6991381 89.648295,60.7365955 89.0327446,58.1478446 C87.3377606,51.0194422 86.7985321,43.6346054 88.1334768,36.6316209 C88.922094,32.494615 90.351751,28.6705306 92.5004998,25.2440765 C95.8940579,19.8326151 100.928884,15.085039 107.157837,10.9349833 C111.237349,8.21699816 115.58892,5.91394571 119.939369,4.00884634 C121.462586,3.34181653 122.879556,2.77109101 124.155858,2.29545455 C124.933818,2.00553417 125.500999,1.8089656 125.822824,1.70477888 L128.89273,0.7109375 L129.805393,3.80594758 C129.922757,4.20395098 130.118877,4.91903229 130.367328,5.90938267 C130.776885,7.54191645 131.185449,9.36494074 131.566474,11.3370901 C132.80681,17.7569684 133.478923,24.2338065 133.279296,30.3339061 C133.161312,33.9392138 132.736214,37.3024085 131.96285,40.3796104 C128.002396,56.1381995 112.28833,65.8639472 93.6415742,65.8639472 L91.4746925,65.8639472 L90.7041202,63.8387079 Z M98.639591,62.0548228 C98.6742898,61.9317689 98.7519641,61.6712334 98.8748364,61.281475 C99.0839287,60.6182215 99.3426804,59.8421841 99.6533052,58.9616223 C100.54622,56.4303803 101.673308,53.5795859 103.052143,50.475303 C106.998951,41.5895313 112.164374,32.4760566 118.686175,23.6613402 C119.460476,22.614813 119.239792,21.1387403 118.193265,20.3644395 C117.146738,19.5901387 115.670665,19.8108218 114.896364,20.857349 C108.157445,29.9655185 102.823643,39.3760679 98.7436855,48.5616083 C97.3131522,51.7822846 96.1405987,54.7480776 95.2074694,57.39332 C94.8789787,58.3245278 94.6034657,59.1508349 94.3786279,59.8640345 C94.241142,60.300148 94.1497605,60.6066601 94.1021895,60.7753633 C93.7488765,62.0283321 94.4781916,63.3304808 95.7311604,63.6837938 C96.9841293,64.0371068 98.286278,63.3077917 98.639591,62.0548228 Z" id="leaves"></path>
                </g>
            </g>
        </g>
    </g>
</svg>